# xmcd CD database file
#
# Track frame offsets:
#	150
#	16273
#	31120
#	49920
#	66628
#	80287
#	94125
#	120009
#	135957
#	152146
#
# Disc length: 2230 seconds
#
# Revision: 0
# Processed by: cddbd v1.5.2PL0 Copyright (c) Steve Scherf et al.
# Submitted via: CDex 1.51
#
DISCID=7108b40a
DTITLE=Ian Tyson - Carnero Vaquero
DYEAR=2015
DGENRE=Country
TTITLE0=Doney Gal
TTITLE1=Colorado Horses
TTITLE2=Will James
TTITLE3=Jughound Ronnie
TTITLE4=Darcy Farrow
TTITLE5=The Flood
TTITLE6=Shawnie
TTITLE7=Chantell
TTITLE8=Wolves No Longer Sing
TTITLE9=Ian Tyson - Cottonwood Canyon
EXTD=YEAR: 2015
EXTT0=
EXTT1=
EXTT2=
EXTT3=
EXTT4=
EXTT5=
EXTT6=
EXTT7=
EXTT8=
EXTT9=
PLAYORDER=
